<?xml version="1.0" standalone="no"?>
<!DOCTYPE svg PUBLIC "-//W3C//DTD SVG 20010904//EN"
 "http://www.w3.org/TR/2001/REC-SVG-20010904/DTD/svg10.dtd">
<svg version="1.0" xmlns="http://www.w3.org/2000/svg"
 width="164.000000pt" height="164.000000pt" viewBox="0 0 164.000000 164.000000"
 preserveAspectRatio="xMidYMid meet">
<metadata>
Created by potrace 1.14, written by Peter Selinger 2001-2017
</metadata>
<g transform="translate(0.000000,164.000000) scale(0.100000,-0.100000)"
fill="#000000" stroke="none">
<path d="M820 1570 c-76 -46 -97 -65 -107 -92 -18 -49 -18 -1468 0 -1468 6 0
55 27 107 58 78 48 97 65 107 93 18 51 18 1469 1 1468 -7 0 -56 -27 -108 -59z"/>
<path d="M515 1230 c-55 -33 -106 -67 -112 -77 -10 -13 -13 -145 -13 -580 0
-310 3 -563 6 -563 3 0 49 26 101 57 74 44 99 65 109 90 12 27 14 135 12 583
l-3 550 -100 -60z"/>
<path d="M1140 1222 c-58 -35 -100 -67 -107 -84 -10 -20 -13 -148 -11 -581 l3
-556 100 61 c55 33 105 68 112 77 10 12 12 145 13 579 0 309 -4 562 -8 562 -4
0 -50 -26 -102 -58z"/>
<path d="M197 841 c-54 -32 -104 -67 -112 -77 -12 -16 -14 -83 -15 -391 l0
-373 102 63 c64 39 108 72 116 89 9 20 12 112 10 387 l-3 361 -98 -59z"/>
<path d="M1471 842 c-52 -32 -102 -68 -113 -82 -17 -24 -18 -47 -16 -392 l3
-367 94 57 c52 32 102 68 113 82 17 24 18 47 16 392 l-3 367 -94 -57z"/>
</g>
</svg>
