<?xml version="1.0" standalone="no"?>
<!DOCTYPE svg PUBLIC "-//W3C//DTD SVG 20010904//EN"
 "http://www.w3.org/TR/2001/REC-SVG-20010904/DTD/svg10.dtd">
<svg version="1.0" xmlns="http://www.w3.org/2000/svg"
 width="260.000000pt" height="260.000000pt" viewBox="0 0 260.000000 260.000000"
 preserveAspectRatio="xMidYMid meet">
<metadata>
Created by potrace 1.14, written by Peter Selinger 2001-2017
</metadata>
<g transform="translate(0.000000,260.000000) scale(0.100000,-0.100000)"
fill="#000000" stroke="none">
<path d="M1310 2461 c-102 -61 -150 -97 -163 -119 -18 -31 -19 -79 -19 -1133
0 -605 2 -1103 5 -1105 3 -3 53 23 112 58 59 34 121 71 138 81 46 27 67 49 80
88 15 44 17 2211 2 2215 -6 1 -75 -37 -155 -85z"/>
<path d="M860 1955 c-144 -84 -188 -118 -202 -154 -10 -26 -14 -1688 -4 -1698
4 -4 94 47 231 130 58 35 77 51 92 80 15 29 17 109 17 875 1 463 -1 842 -4
842 -3 -1 -61 -34 -130 -75z"/>
<path d="M1794 1939 c-116 -70 -154 -98 -169 -125 -17 -32 -18 -75 -19 -870
-1 -460 2 -838 6 -840 4 -3 47 18 95 47 49 29 97 57 108 63 66 37 106 70 121
98 16 30 17 106 18 876 1 463 -1 842 -4 842 -3 -1 -73 -41 -156 -91z"/>
<path d="M420 1390 c-46 -27 -84 -50 -86 -50 -5 0 -109 -65 -120 -75 -6 -5
-18 -22 -28 -37 -16 -24 -17 -71 -17 -578 0 -304 1 -553 3 -555 10 -7 296 177
317 204 l25 33 1 554 c0 305 -2 554 -6 554 -3 0 -43 -22 -89 -50z"/>
<path d="M2272 1352 c-101 -62 -149 -97 -165 -122 -21 -34 -22 -37 -22 -575
-1 -297 0 -545 2 -551 3 -7 52 17 114 55 61 36 127 76 147 87 20 12 46 34 57
49 19 26 20 44 23 586 1 307 -1 559 -5 558 -5 0 -72 -39 -151 -87z"/>
</g>
</svg>
